<svg xmlns="http://www.w3.org/2000/svg" viewBox="0 0 50 50">
  <defs>
    <marker
      id="arrow"
      viewBox="0 0 4 4"
      refX="2"
      refY="2"
      markerWidth="2"
      markerHeight="2"
      orient="auto-start-reverse"
    >
      <path d="M 0 0 L 4 2 L 0 4 z" />
    </marker>
  </defs>
  <path d="M15 2, C 17 13 33 13, 35 2" stroke="red" fill="transparent"></path>
  <path d="M15 2, C 17 13 33 13, 35 2" stroke="grey" fill="transparent" transform="rotate(50 25 25)"></path>
  <path d="M15 2, C 17 13 33 13, 35 2" stroke="grey" fill="transparent" transform="rotate(100 25 25)"></path>
  <path d="M15 2, C 17 13 33 13, 35 2" stroke="grey" fill="transparent" transform="rotate(150 25 25)"></path>
  <path d="M15 2, C 17 13 33 13, 35 2" stroke="grey" fill="transparent" transform="rotate(200 25 25)"></path>
  <path d="M15 2, C 17 13 33 13, 35 2" stroke="grey" fill="transparent" transform="rotate(250 25 25)"></path>
  <path d="M15 2, C 17 13 33 13, 35 2" stroke="green" fill="transparent" transform="rotate(300 25 25)"></path>
  <text x="22" y="30">P</text>
  <line x1="22" y1="27" x2="28" y2="27" stroke="black"></line>
</svg>